<svg width="256" height="256" viewBox="0 0 256 256" fill="none" xmlns="http://www.w3.org/2000/svg">
<rect y="10" width="202.294" height="202.294" rx="24" fill="#D0E3F5"/>
<rect x="53.7063" y="44.014" width="202.294" height="202.294" rx="24" fill="#22313F"/>
<path d="M172.214 119.826L139.218 119.781C137.132 119.778 135.282 118.97 133.668 117.356C132.054 115.742 131.246 113.892 131.243 111.806C131.24 109.72 132.043 107.872 133.653 106.262C135.263 104.653 137.111 103.849 139.196 103.852L191.535 103.923C193.81 103.926 195.707 104.687 197.227 106.206C198.746 107.725 199.507 109.623 199.51 111.898L199.581 164.236C199.584 166.322 198.78 168.17 197.171 169.78C195.561 171.389 193.713 172.193 191.627 172.19C189.541 172.187 187.691 171.379 186.077 169.765C184.463 168.151 183.655 166.301 183.652 164.215L183.607 131.219L127.058 187.332C125.449 188.941 123.552 189.745 121.367 189.742C119.183 189.739 117.287 188.93 115.681 187.316C114.074 185.702 113.268 183.805 113.261 181.624C113.254 179.443 114.056 177.548 115.665 175.938L172.214 119.826Z" fill="white"/>
</svg>
