<svg width="611" height="611" viewBox="0 0 611 611" fill="none" xmlns="http://www.w3.org/2000/svg">
<path d="M444.188 41C457.443 41.0001 468.188 51.7452 468.188 65V459.188C468.188 472.443 457.443 483.188 444.188 483.188H50C36.7452 483.188 26.0001 472.443 26 459.188V65C26 51.7452 36.7452 41 50 41H444.188ZM330.266 246.148C325.706 246.142 321.667 247.899 318.148 251.417C314.63 254.935 312.874 258.975 312.88 263.534C312.886 268.094 314.653 272.138 318.181 275.666C321.709 279.194 325.753 280.962 330.312 280.968L402.438 281.065L278.829 403.721C275.311 407.239 273.559 411.382 273.573 416.148C273.588 420.915 275.352 425.063 278.863 428.591C282.375 432.119 286.518 433.886 291.293 433.893C296.068 433.899 300.215 432.143 303.733 428.625L427.342 305.97L427.439 378.094C427.446 382.653 429.212 386.698 432.74 390.226C436.268 393.754 440.313 395.52 444.872 395.526C449.432 395.533 453.471 393.777 456.989 390.259C460.508 386.74 462.264 382.7 462.258 378.141L462.103 263.736C462.096 258.763 460.433 254.615 457.112 251.295C453.792 247.974 449.644 246.31 444.67 246.304L330.266 246.148Z" fill="#D0E3F5"/>
<path d="M561.583 115.35C574.838 115.35 585.583 126.095 585.583 139.35V533.539C585.583 546.793 574.838 557.539 561.583 557.539H167.395C154.14 557.539 143.395 546.793 143.395 533.539V139.35C143.395 126.095 154.14 115.35 167.395 115.35H561.583ZM330.265 246.149C325.706 246.143 321.666 247.899 318.148 251.418C314.63 254.936 312.873 258.975 312.879 263.535C312.886 268.094 314.653 272.138 318.181 275.666C321.709 279.194 325.753 280.961 330.313 280.967L402.437 281.065L278.83 403.72C275.311 407.239 273.559 411.382 273.574 416.149C273.589 420.916 275.351 425.063 278.863 428.591C282.374 432.119 286.518 433.887 291.292 433.893C296.068 433.9 300.215 432.143 303.734 428.625L427.341 305.969L427.439 378.093C427.445 382.653 429.213 386.697 432.741 390.225C436.269 393.753 440.313 395.521 444.873 395.527C449.432 395.533 453.471 393.777 456.99 390.258C460.508 386.74 462.264 382.701 462.258 378.141L462.103 263.737C462.096 258.763 460.432 254.615 457.112 251.295C453.791 247.974 449.643 246.31 444.669 246.303L330.265 246.149Z" fill="#22313F"/>
</svg>
